<svg width="72" height="72" viewBox="0 0 72 72" fill="none" xmlns="http://www.w3.org/2000/svg">
<rect width="72" height="72" rx="16" fill="#FF9470"/>
<circle cx="36" cy="36" r="10" fill="white"/>
<circle cx="14.5" cy="22.5" r="3.5" fill="white"/>
<circle cx="57.5" cy="49.5" r="3.5" fill="white"/>
<path d="M46.6016 58.8729C42.8705 60.5494 38.779 61.2652 34.7004 60.9547C30.6217 60.6443 26.6857 59.3176 23.2513 57.0957C19.817 54.8738 16.9936 51.8273 15.0387 48.2343C13.0838 44.6412 12.0597 40.6158 12.0597 36.5254M12.0597 36.5254L16.9991 41.5M12.0597 36.5254L8.5 43.5" stroke="white" stroke-width="3" stroke-linecap="round"/>
<path d="M26 13.1525C29.7311 11.4759 33.8225 10.7602 37.9012 11.0707C41.9798 11.3811 45.9159 12.7078 49.3502 14.9297C52.7846 17.1516 55.608 20.198 57.5629 23.7911C59.5177 27.3842 60.5419 31.4096 60.5419 35.5M60.5419 35.5L55.6024 30.5254M60.5419 35.5L64.1016 28.5254" stroke="white" stroke-width="3" stroke-linecap="round"/>
</svg>
