<svg xmlns="http://www.w3.org/2000/svg" data-name="Group 1282" width="65.23529444763815" height="65.29411763880904" style=""><rect id="backgroundrect" width="100%" height="100%" x="0" y="0" fill="none" stroke="none" style="" class="selected"/>
  
  
  
<g class="currentLayer" style=""><title>Layer 1</title><path id="Path_2520" data-name="Path 2520" d="M55.20499656677248,55.204412281999595 h-9.6 V40.1704122819996 c0,-3.585 -0.06400000000000006,-8.2 -4.993,-8.2 c-5,0 -5.7650000000000015,3.906 -5.7650000000000015,7.939 v15.294 h-9.6 V24.287412281999593 h9.216 v4.225 h0.129 a10.1,10.1 0 0 1 9.093,-4.994 c9.73,0 11.524000000000001,6.4 11.524000000000001,14.726 zM14.414996566772516,20.061412281999594 a5.571,5.571 0 1 1 5.57,-5.572 a5.571,5.571 0 0 1 -5.57,5.572 m4.8,35.143 h-9.61 V24.287412281999593 h9.61 zm40.776,-55.2 h-55.21 a4.728,4.728 0 0 0 -4.781,4.67 v55.439 a4.731,4.731 0 0 0 4.781,4.675 h55.21 a4.741,4.741 0 0 0 4.8,-4.675 V4.670412281999596 a4.738,4.738 0 0 0 -4.8,-4.67 " fill="#0a66c2" class=""/></g></svg>