<svg xmlns="http://www.w3.org/2000/svg" xmlns:xlink="http://www.w3.org/1999/xlink" enable-background="new 0 0 1000 291.379" height="299" version="1.1" width="298" xml:space="preserve" style=""><rect id="backgroundrect" width="100%" height="100%" x="0" y="0" fill="none" stroke="none" style="" class=""/>

<g class="currentLayer" style=""><title>Layer 1</title><g id="svg_1" class="">
<path d="M211.102,109.182 c18.814,13.442 41.862,21.351 66.755,21.351 V82.656 c-4.711,0.0010000000000000002 -9.41,-0.49000000000000005 -14.019,-1.466 v37.686 c-24.891000000000002,0 -47.936,-7.909 -66.755,-21.35 v97.703 c0,48.876 -39.642,88.495 -88.54,88.495 c-18.245,0 -35.203,-5.513 -49.29,-14.968 c16.078,16.431 38.5,26.624 63.306,26.624 c48.901,0 88.545,-39.619 88.545,-88.497 v-97.701 H211.102 zM228.396,60.88 c-9.615,-10.499 -15.928,-24.067 -17.294,-39.067 v-6.158 h-13.285 C201.161,34.72 212.567,51.008 228.396,60.88 L228.396,60.88 zM90.181,231.25 c-5.372,-7.04 -8.275,-15.652000000000001 -8.262,-24.507 c0,-22.354 18.132,-40.479 40.502,-40.479 c4.1690000000000005,-0.0010000000000000002 8.313,0.6370000000000001 12.286,1.8970000000000002 v-48.947 c-4.643,-0.6360000000000001 -9.329,-0.906 -14.013,-0.807 v38.098 c-3.976,-1.26 -8.122,-1.9 -12.292,-1.8960000000000001 c-22.37,0 -40.501,18.123 -40.501,40.48 C67.90100000000001,210.897 76.964,224.583 90.181,231.25 z" fill="#FF004F" id="svg_2"/>
<path d="M197.083,97.525 c18.819,13.441 41.864,21.35 66.755,21.35 V81.189 c-13.894,-2.958 -26.194,-10.215 -35.442,-20.309 c-15.83,-9.873 -27.235,-26.161 -30.579,-45.225 h-34.896 v191.226 c-0.07900000000000001,22.293 -18.18,40.344 -40.502,40.344 c-13.154,0 -24.84,-6.267 -32.241,-15.975 c-13.216,-6.667 -22.279,-20.354 -22.279,-36.16 c0,-22.355 18.131,-40.48 40.501,-40.48 c4.286,0 8.417,0.6670000000000001 12.292,1.8960000000000001 v-38.098 c-48.039,0.992 -86.674,40.224 -86.674,88.474 c0,24.086 9.621,45.921 25.236,61.875 c14.087,9.454 31.045,14.968 49.29,14.968 c48.899,0 88.54,-39.621 88.54,-88.496 V97.525 L197.083,97.525 z" id="svg_3"/>
<path d="M263.83799999999997,81.189 V70.999 c-12.529,0.019000000000000003 -24.812,-3.488 -35.442,-10.12 C237.806,71.176 250.197,78.276 263.83799999999997,81.189 zM197.817,15.655 c-0.31900000000000006,-1.822 -0.5640000000000001,-3.656 -0.7340000000000001,-5.497 V4 h-48.182 v191.228 c-0.07700000000000001,22.29 -18.177,40.341 -40.501,40.341 c-6.554,0 -12.742,-1.5550000000000002 -18.222,-4.318 c7.401,9.707 19.087,15.973 32.241,15.973 c22.32,0 40.424,-18.049 40.502,-40.342 V15.655 H197.817 zM120.694,118.408 V107.56 c-4.026,-0.55 -8.085,-0.8260000000000001 -12.149000000000001,-0.8240000000000001 C59.642,106.735 20,146.356 20,195.228 c0,30.64 15.58,57.643 39.255,73.527 c-15.615,-15.953 -25.236,-37.789 -25.236,-61.874 C34.019,158.632 72.65299999999999,119.4 120.694,118.408 z" fill="#00F2EA" id="svg_4"/>
<path d="M822.126,243.659 c34.989,0 63.354,-28.136 63.354,-62.84 c0,-34.703 -28.365,-62.844 -63.354,-62.844 h-9.545 c34.99,0 63.355,28.14 63.355,62.844 s-28.365,62.84 -63.355,62.84 H822.126 z" fill="#FF004F" id="svg_5"/>
<path d="M811.716,117.975 h-9.544 c-34.988,0 -63.358,28.14 -63.358,62.844 s28.37,62.84 63.358,62.84 h9.544 c-34.993,0 -63.358,-28.136 -63.358,-62.84 C748.357,146.116 776.723,117.975 811.716,117.975 z" fill="#00F2EA" id="svg_6"/>
<path d="M330.062,89.572 v31.853 h37.311 v121.374 h37.326 V122.285 h30.372 l10.414,-32.712 H330.062 zM635.544,89.572 v31.853 h37.311 v121.374 h37.326 V122.285 h30.371 l10.413,-32.712 H635.544 zM452.434,107.648 c0,-9.981 8.146,-18.076 18.21,-18.076 c10.073,0 18.228,8.095 18.228,18.076 c0,9.982 -8.15,18.077 -18.228,18.077 C460.58,125.72 452.434,117.63 452.434,107.648 zM452.434,138.641 h36.438 v104.158 h-36.438 V138.641 zM504.496,89.572 v153.226 h36.452 v-39.594 l11.283,-10.339 l35.577,50.793 h39.05 l-51.207,-74.03 l45.997,-44.768 h-44.258 l-36.442,36.153 V89.572 H504.496 zM897.623,89.572 v153.226 h36.457 v-39.594 l11.278,-10.339 l35.587,50.793 H1020 l-51.207,-74.03 l45.995,-44.768 h-44.256 l-36.452,36.153 V89.572 H897.623 z" id="svg_7"/>
<path d="M812.578,243.659 c34.988,0 63.358,-28.136 63.358,-62.84 c0,-34.703 -28.37,-62.844 -63.358,-62.844 h-0.8650000000000001 c-34.99,0 -63.355,28.14 -63.355,62.844 s28.365,62.84 63.355,62.84 H812.578 zM781.336,180.819 c0,-16.881 13.8,-30.555 30.817,-30.555 c17.005,0 30.804,13.674 30.804,30.555 s-13.799,30.563 -30.804,30.563 C795.136,211.379 781.336,197.7 781.336,180.819 z" id="svg_8"/>
</g></g></svg>